:SAMPLES-PER-SECOND 30
:FULLY-SPECIFIED
:DEGREES
427
root  -44.4756 39.2281 -30.3302 1.72604 -39.7314 -9.75591
RightUpLeg  11.1319 -38.3436 -3.96404
RightLeg  24.5159 -6.9167 -3.44625
RightFoot  -17.8263 0.349547 8.2017
RightToes  0.00048216 0.542163 -0.142577
Spine  14.9254 2.4778 13.3973
Spine1  12.1297 6.48974 -6.76625
HEad  4.90988 -4.38457 -2.96306
LeftShoulder1  7.25283 -11.0972 -43.1928
LeftArm  -13.0313 27.1519 -27.59
LeftForeArm  35.4312 -29.0388 -4.36235
LeftHand  -0.25398 0.0180481 5.50724
RightShoulder  4.98244 9.08948 33.6186
RightArm  -5.20464 19.0826 30.8292
RightForeArm  1.67061 15.7329 6.27642
RightHand  -2.70027 8.41933 -22.8369
LeftUpLeg  -13.3639 5.12722 -2.35919
LeftLeg  -2.24063 38.8815 -10.6597
LeftFoot  4.38017 -2.63208 18.8491
LeftToes  1.06247e-005 4.65855e-005 -8.18501e-006
428
root  -45.6341 38.9766 -30.1509 0.567505 -37.0882 -8.39639
RightUpLeg  9.06463 -37.4192 -4.08117
RightLeg  32.229 -7.82434 -5.64387
RightFoot  -16.4223 0.492363 14.3247
RightToes  0.00048216 0.542163 -0.142577
Spine  16.7426 2.78648 10.8369
Spine1  11.3841 6.48277 -6.23285
HEad  3.93693 -6.03395 -0.980144
LeftShoulder1  7.3128 -11.1178 -43.5054
LeftArm  -12.6151 26.6422 -26.1764
LeftForeArm  34.6318 -28.5769 -4.30183
LeftHand  -0.25398 0.0180481 5.50724
RightShoulder  5.196 9.44508 34.1759
RightArm  -3.81744 20.2526 30.9455
RightForeArm  -0.615031 17.872 5.79775
RightHand  -3.10184 9.6156 -24.099
LeftUpLeg  -15.599 10.6432 -5.60715
LeftLeg  6.40839 30.5148 -3.87359
LeftFoot  1.52523 -2.86127 24.7691
LeftToes  1.06247e-005 4.65855e-005 -8.18501e-006
429
root  -46.6052 38.8829 -30.0632 -0.380646 -35.0473 -6.35944
RightUpLeg  2.4757 -35.3094 -3.92912
RightLeg  44.0514 -8.40654 -8.94093
RightFoot  -8.72124 -0.407504 16.9895
RightToes  0.00048216 0.542163 -0.142577
Spine  19.4904 3.0508 8.98899
Spine1  10.2642 6.92344 -7.16603
HEad  2.36059 -7.88707 0.683646
LeftShoulder1  7.45361 -11.4112 -43.4722
LeftArm  -12.1237 24.9232 -25.3802
LeftForeArm  34.071 -27.8127 -4.1624
LeftHand  -0.25398 0.0180481 5.50724
RightShoulder  5.43253 9.90447 34.5628
RightArm  -3.86882 22.0642 31.4734
RightForeArm  -1.62757 19.1027 5.49134
RightHand  -3.49088 10.8216 -25.0683
LeftUpLeg  -18.3251 19.461 -10.0993
LeftLeg  12.1902 19.4205 0.738879
LeftFoot  -0.378334 -2.34123 24.0116
LeftToes  1.06247e-005 4.65855e-005 -8.18501e-006
430
root  -47.3719 38.8457 -30.0836 -0.857773 -32.9388 -4.0267
RightUpLeg  -6.93585 -33.1662 -3.93179
RightLeg  56.1254 -6.68414 -10.8917
RightFoot  3.0078 -1.57821 12.9268
RightToes  0.00048216 0.542163 -0.142577
Spine  22.6801 2.90478 8.02514
Spine1  9.29324 7.35688 -9.10468
HEad  0.331138 -9.753 1.87045
LeftShoulder1  7.54754 -11.7558 -43.0007
LeftArm  -12.0638 22.6486 -25.6633
LeftForeArm  34.124 -27.882 -4.17368
LeftHand  -0.25398 0.0180481 5.50724
RightShoulder  5.58435 10.4137 34.1758
RightArm  -4.73922 24.7383 32.3976
RightForeArm  -1.93946 19.3785 5.41569
RightHand  -3.78417 11.7836 -25.6271
LeftUpLeg  -20.415 23.5754 -13.36
LeftLeg  14.6435 13.4407 1.8601
LeftFoot  -0.858011 -1.98418 21.4312
LeftToes  1.06247e-005 4.65855e-005 -8.18501e-006
431
root  -48.0274 38.8081 -30.1686 -0.767395 -30.408 -2.16812
RightUpLeg  -15.6309 -30.9743 -4.07918
RightLeg  63.991 -3.6121 -8.60746
RightFoot  10.5885 -1.47965 7.83073
RightToes  0.00048216 0.542163 -0.142577
Spine  25.7192 2.36672 7.89798
Spine1  8.80208 7.51327 -11.0774
HEad  -1.93548 -11.4278 2.31451
LeftShoulder1  7.63563 -12.0286 -42.7225
LeftArm  -12.3364 20.6219 -26.3755
LeftForeArm  35.3524 -30.4674 -4.69374
LeftHand  -0.25398 0.0180481 5.50724
RightShoulder  5.66168 10.9258 33.2907
RightArm  -5.57304 28.2091 32.8186
RightForeArm  -2.50151 19.3912 5.42875
RightHand  -4.02661 12.5116 -26.1329
LeftUpLeg  -21.3192 22.9374 -14.6805
LeftLeg  15.4642 11.8191 1.25424
LeftFoot  -0.910927 -1.94533 21.1142
LeftToes  1.06247e-005 4.65855e-005 -8.18501e-006
432
root  -48.6614 38.8887 -30.2564 -0.0354919 -27.544 -1.51857
RightUpLeg  -21.8271 -28.7506 -4.01223
RightLeg  66.7645 -1.52685 -4.69727
RightFoot  10.4626 -1.2609 6.94124
RightToes  0.00048216 0.542163 -0.142577
Spine  28.3316 1.6488 8.97194
Spine1  8.87244 7.58885 -12.1962
HEad  -4.39985 -13.255 2.39449
LeftShoulder1  7.85161 -12.3626 -43.0245
LeftArm  -12.2796 18.9481 -26.9911
LeftForeArm  37.9564 -35.6504 -5.81239
LeftHand  -0.25398 0.0180481 5.50724
RightShoulder  5.69149 11.2958 32.5101
RightArm  -6.49735 32.252 31.8152
RightForeArm  -3.32035 19.5978 5.42351
RightHand  -4.33781 13.3038 -26.9159
LeftUpLeg  -21.3722 19.7262 -14.053
LeftLeg  15.3103 12.1354 0.353588
LeftFoot  -0.740794 -2.00049 21.349
LeftToes  1.06247e-005 4.65855e-005 -8.18501e-006
